<?xml version="1.0" encoding="UTF-8" standalone="no"?>
<!DOCTYPE svg PUBLIC "-//W3C//DTD SVG 1.1//EN"
 "http://www.w3.org/Graphics/SVG/1.1/DTD/svg11.dtd">
<!-- Generated by graphviz version 12.2.1 (20241206.2353)
 -->
<!-- Title: structs Pages: 1 -->
<svg width="496pt" height="1130pt"
 viewBox="0.00 0.00 495.50 1130.00" xmlns="http://www.w3.org/2000/svg" xmlns:xlink="http://www.w3.org/1999/xlink">
<g id="graph0" class="graph" transform="scale(1 1) rotate(0) translate(4 1126)">
<title>structs</title>
<polygon fill="white" stroke="none" points="-4,4 -4,-1126 491.5,-1126 491.5,4 -4,4"/>
<!-- ingredients -->
<g id="node1" class="node">
<title>ingredients</title>
<polygon fill="none" stroke="black" points="227.62,-994.5 227.62,-1017 304.88,-1017 304.88,-994.5 227.62,-994.5"/>
<text text-anchor="start" x="234" y="-1001.7" font-family="Times New Roman,serif" font-weight="bold" font-size="14.00">ingredients</text>
<polygon fill="none" stroke="black" points="227.62,-972 227.62,-994.5 237.38,-994.5 237.38,-972 227.62,-972"/>
<polygon fill="none" stroke="black" points="237.38,-972 237.38,-994.5 304.88,-994.5 304.88,-972 237.38,-972"/>
<text text-anchor="start" x="265.88" y="-978.2" font-family="Times New Roman,serif" font-size="14.00">id</text>
<polygon fill="none" stroke="black" points="227.62,-949.5 227.62,-972 237.38,-972 237.38,-949.5 227.62,-949.5"/>
<text text-anchor="start" x="230.62" y="-955.7" font-family="Times New Roman,serif" font-size="14.00"> </text>
<polygon fill="none" stroke="black" points="237.38,-949.5 237.38,-972 304.88,-972 304.88,-949.5 237.38,-949.5"/>
<text text-anchor="start" x="240.38" y="-955.7" font-family="Times New Roman,serif" font-size="14.00">item_name</text>
<polygon fill="none" stroke="black" points="227.62,-927 227.62,-949.5 237.38,-949.5 237.38,-927 227.62,-927"/>
<text text-anchor="start" x="230.62" y="-933.2" font-family="Times New Roman,serif" font-size="14.00"> </text>
<polygon fill="none" stroke="black" points="237.38,-927 237.38,-949.5 304.88,-949.5 304.88,-927 237.38,-927"/>
<text text-anchor="start" x="256.88" y="-933.2" font-family="Times New Roman,serif" font-size="14.00">notes</text>
</g>
<!-- menu_item_ingredients -->
<g id="node2" class="node">
<title>menu_item_ingredients</title>
<polygon fill="none" stroke="black" points="8,-799.5 8,-822 151.25,-822 151.25,-799.5 8,-799.5"/>
<text text-anchor="start" x="11" y="-806.7" font-family="Times New Roman,serif" font-weight="bold" font-size="14.00">menu_item_ingredients</text>
<polygon fill="none" stroke="black" points="8,-777 8,-799.5 41.75,-799.5 41.75,-777 8,-777"/>
<polygon fill="none" stroke="black" points="41.75,-777 41.75,-799.5 151.25,-799.5 151.25,-777 41.75,-777"/>
<text text-anchor="start" x="56.75" y="-783.2" font-family="Times New Roman,serif" font-size="14.00">menu_item_id</text>
<polygon fill="none" stroke="black" points="8,-754.5 8,-777 41.75,-777 41.75,-754.5 8,-754.5"/>
<polygon fill="none" stroke="black" points="41.75,-754.5 41.75,-777 151.25,-777 151.25,-754.5 41.75,-754.5"/>
<text text-anchor="start" x="60.5" y="-760.7" font-family="Times New Roman,serif" font-size="14.00">ingredient_id</text>
<polygon fill="none" stroke="black" points="8,-732 8,-754.5 41.75,-754.5 41.75,-732 8,-732"/>
<text text-anchor="start" x="23" y="-738.2" font-family="Times New Roman,serif" font-size="14.00"> </text>
<polygon fill="none" stroke="black" points="41.75,-732 41.75,-754.5 151.25,-754.5 151.25,-732 41.75,-732"/>
<text text-anchor="start" x="74" y="-738.2" font-family="Times New Roman,serif" font-size="14.00">numeral</text>
</g>
<!-- menu_item_ingredients&#45;&gt;ingredients -->
<g id="edge1" class="edge">
<title>menu_item_ingredients:e&#45;&gt;ingredients:w</title>
<path fill="none" stroke="black" d="M152.25,-765.75C250.22,-765.75 134.73,-965.77 215.19,-982.18"/>
<polygon fill="black" stroke="black" points="214.84,-985.66 225.12,-983.11 215.49,-978.69 214.84,-985.66"/>
</g>
<!-- menu_items -->
<g id="node3" class="node">
<title>menu_items</title>
<polygon fill="none" stroke="black" points="203.25,-799.5 203.25,-822 329.25,-822 329.25,-799.5 203.25,-799.5"/>
<text text-anchor="start" x="230.62" y="-806.7" font-family="Times New Roman,serif" font-weight="bold" font-size="14.00">menu_items</text>
<polygon fill="none" stroke="black" points="203.25,-777 203.25,-799.5 213,-799.5 213,-777 203.25,-777"/>
<polygon fill="none" stroke="black" points="213,-777 213,-799.5 329.25,-799.5 329.25,-777 213,-777"/>
<text text-anchor="start" x="265.88" y="-783.2" font-family="Times New Roman,serif" font-size="14.00">id</text>
<polygon fill="none" stroke="black" points="203.25,-754.5 203.25,-777 213,-777 213,-754.5 203.25,-754.5"/>
<text text-anchor="start" x="206.25" y="-760.7" font-family="Times New Roman,serif" font-size="14.00"> </text>
<polygon fill="none" stroke="black" points="213,-754.5 213,-777 329.25,-777 329.25,-754.5 213,-754.5"/>
<text text-anchor="start" x="240.38" y="-760.7" font-family="Times New Roman,serif" font-size="14.00">item_name</text>
<polygon fill="none" stroke="black" points="203.25,-732 203.25,-754.5 213,-754.5 213,-732 203.25,-732"/>
<text text-anchor="start" x="206.25" y="-738.2" font-family="Times New Roman,serif" font-size="14.00"> </text>
<polygon fill="none" stroke="black" points="213,-732 213,-754.5 329.25,-754.5 329.25,-732 213,-732"/>
<text text-anchor="start" x="257.62" y="-738.2" font-family="Times New Roman,serif" font-size="14.00">price</text>
<polygon fill="none" stroke="black" points="203.25,-709.5 203.25,-732 213,-732 213,-709.5 203.25,-709.5"/>
<text text-anchor="start" x="206.25" y="-715.7" font-family="Times New Roman,serif" font-size="14.00"> </text>
<polygon fill="none" stroke="black" points="213,-709.5 213,-732 329.25,-732 329.25,-709.5 213,-709.5"/>
<text text-anchor="start" x="243.75" y="-715.7" font-family="Times New Roman,serif" font-size="14.00">item_type</text>
<polygon fill="none" stroke="black" points="203.25,-687 203.25,-709.5 213,-709.5 213,-687 203.25,-687"/>
<text text-anchor="start" x="206.25" y="-693.2" font-family="Times New Roman,serif" font-size="14.00"> </text>
<polygon fill="none" stroke="black" points="213,-687 213,-709.5 329.25,-709.5 329.25,-687 213,-687"/>
<text text-anchor="start" x="239.25" y="-693.2" font-family="Times New Roman,serif" font-size="14.00">active_item</text>
<polygon fill="none" stroke="black" points="203.25,-664.5 203.25,-687 213,-687 213,-664.5 203.25,-664.5"/>
<text text-anchor="start" x="206.25" y="-670.7" font-family="Times New Roman,serif" font-size="14.00"> </text>
<polygon fill="none" stroke="black" points="213,-664.5 213,-687 329.25,-687 329.25,-664.5 213,-664.5"/>
<text text-anchor="start" x="216" y="-670.7" font-family="Times New Roman,serif" font-size="14.00">dietary_requirement</text>
<polygon fill="none" stroke="black" points="203.25,-642 203.25,-664.5 213,-664.5 213,-642 203.25,-642"/>
<text text-anchor="start" x="206.25" y="-648.2" font-family="Times New Roman,serif" font-size="14.00"> </text>
<polygon fill="none" stroke="black" points="213,-642 213,-664.5 329.25,-664.5 329.25,-642 213,-642"/>
<text text-anchor="start" x="241.12" y="-648.2" font-family="Times New Roman,serif" font-size="14.00">description</text>
<polygon fill="none" stroke="black" points="203.25,-619.5 203.25,-642 213,-642 213,-619.5 203.25,-619.5"/>
<text text-anchor="start" x="206.25" y="-625.7" font-family="Times New Roman,serif" font-size="14.00"> </text>
<polygon fill="none" stroke="black" points="213,-619.5 213,-642 329.25,-642 329.25,-619.5 213,-619.5"/>
<text text-anchor="start" x="256.88" y="-625.7" font-family="Times New Roman,serif" font-size="14.00">notes</text>
<polygon fill="none" stroke="black" points="203.25,-597 203.25,-619.5 213,-619.5 213,-597 203.25,-597"/>
<text text-anchor="start" x="206.25" y="-603.2" font-family="Times New Roman,serif" font-size="14.00"> </text>
<polygon fill="none" stroke="black" points="213,-597 213,-619.5 329.25,-619.5 329.25,-597 213,-597"/>
<text text-anchor="start" x="226.5" y="-603.2" font-family="Times New Roman,serif" font-size="14.00">amount_ordered</text>
<polygon fill="none" stroke="black" points="203.25,-574.5 203.25,-597 213,-597 213,-574.5 203.25,-574.5"/>
<text text-anchor="start" x="206.25" y="-580.7" font-family="Times New Roman,serif" font-size="14.00"> </text>
<polygon fill="none" stroke="black" points="213,-574.5 213,-597 329.25,-597 329.25,-574.5 213,-574.5"/>
<text text-anchor="start" x="243.38" y="-580.7" font-family="Times New Roman,serif" font-size="14.00">created_at</text>
<polygon fill="none" stroke="black" points="203.25,-552 203.25,-574.5 213,-574.5 213,-552 203.25,-552"/>
<text text-anchor="start" x="206.25" y="-558.2" font-family="Times New Roman,serif" font-size="14.00"> </text>
<polygon fill="none" stroke="black" points="213,-552 213,-574.5 329.25,-574.5 329.25,-552 213,-552"/>
<text text-anchor="start" x="241.5" y="-558.2" font-family="Times New Roman,serif" font-size="14.00">updated_at</text>
</g>
<!-- menu_item_ingredients&#45;&gt;menu_items -->
<g id="edge2" class="edge">
<title>menu_item_ingredients:e&#45;&gt;menu_items:w</title>
<path fill="none" stroke="black" d="M152.25,-788.25C170.13,-788.25 177.22,-788.25 190.89,-788.25"/>
<polygon fill="black" stroke="black" points="190.74,-791.75 200.74,-788.25 190.74,-784.75 190.74,-791.75"/>
</g>
<!-- order_items -->
<g id="node4" class="node">
<title>order_items</title>
<polygon fill="none" stroke="black" points="32,-593.5 32,-616 127.25,-616 127.25,-593.5 32,-593.5"/>
<text text-anchor="start" x="44.38" y="-600.7" font-family="Times New Roman,serif" font-weight="bold" font-size="14.00">order_items</text>
<polygon fill="none" stroke="black" points="32,-571 32,-593.5 41.75,-593.5 41.75,-571 32,-571"/>
<polygon fill="none" stroke="black" points="41.75,-571 41.75,-593.5 127.25,-593.5 127.25,-571 41.75,-571"/>
<text text-anchor="start" x="61.62" y="-577.2" font-family="Times New Roman,serif" font-size="14.00">order_id</text>
<polygon fill="none" stroke="black" points="32,-548.5 32,-571 41.75,-571 41.75,-548.5 32,-548.5"/>
<polygon fill="none" stroke="black" points="41.75,-548.5 41.75,-571 127.25,-571 127.25,-548.5 41.75,-548.5"/>
<text text-anchor="start" x="44.75" y="-554.7" font-family="Times New Roman,serif" font-size="14.00">menu_item_id</text>
<polygon fill="none" stroke="black" points="32,-526 32,-548.5 41.75,-548.5 41.75,-526 32,-526"/>
<text text-anchor="start" x="35" y="-532.2" font-family="Times New Roman,serif" font-size="14.00"> </text>
<polygon fill="none" stroke="black" points="41.75,-526 41.75,-548.5 127.25,-548.5 127.25,-526 41.75,-526"/>
<text text-anchor="start" x="62.38" y="-532.2" font-family="Times New Roman,serif" font-size="14.00">quantity</text>
</g>
<!-- order_items&#45;&gt;menu_items -->
<g id="edge4" class="edge">
<title>order_items:e&#45;&gt;menu_items:w</title>
<path fill="none" stroke="black" d="M128.25,-559.75C230.83,-559.75 106.02,-770.75 190.84,-787.23"/>
<polygon fill="black" stroke="black" points="190.47,-790.71 200.74,-788.12 191.09,-783.74 190.47,-790.71"/>
</g>
<!-- orders -->
<g id="node5" class="node">
<title>orders</title>
<polygon fill="none" stroke="black" points="210.75,-503 210.75,-525.5 321.75,-525.5 321.75,-503 210.75,-503"/>
<text text-anchor="start" x="247.5" y="-510.2" font-family="Times New Roman,serif" font-weight="bold" font-size="14.00">orders</text>
<polygon fill="none" stroke="black" points="210.75,-480.5 210.75,-503 220.5,-503 220.5,-480.5 210.75,-480.5"/>
<polygon fill="none" stroke="black" points="220.5,-480.5 220.5,-503 321.75,-503 321.75,-480.5 220.5,-480.5"/>
<text text-anchor="start" x="265.88" y="-486.7" font-family="Times New Roman,serif" font-size="14.00">id</text>
<polygon fill="none" stroke="black" points="210.75,-458 210.75,-480.5 220.5,-480.5 220.5,-458 210.75,-458"/>
<text text-anchor="start" x="213.75" y="-464.2" font-family="Times New Roman,serif" font-size="14.00"> </text>
<polygon fill="none" stroke="black" points="220.5,-458 220.5,-480.5 321.75,-480.5 321.75,-458 220.5,-458"/>
<text text-anchor="start" x="232.5" y="-464.2" font-family="Times New Roman,serif" font-size="14.00">order_number</text>
<polygon fill="none" stroke="black" points="210.75,-435.5 210.75,-458 220.5,-458 220.5,-435.5 210.75,-435.5"/>
<text text-anchor="start" x="213.75" y="-441.7" font-family="Times New Roman,serif" font-size="14.00"> </text>
<polygon fill="none" stroke="black" points="220.5,-435.5 220.5,-458 321.75,-458 321.75,-435.5 220.5,-435.5"/>
<text text-anchor="start" x="251.25" y="-441.7" font-family="Times New Roman,serif" font-size="14.00">user_id</text>
<polygon fill="none" stroke="black" points="210.75,-413 210.75,-435.5 220.5,-435.5 220.5,-413 210.75,-413"/>
<text text-anchor="start" x="213.75" y="-419.2" font-family="Times New Roman,serif" font-size="14.00"> </text>
<polygon fill="none" stroke="black" points="220.5,-413 220.5,-435.5 321.75,-435.5 321.75,-413 220.5,-413"/>
<text text-anchor="start" x="238.12" y="-419.2" font-family="Times New Roman,serif" font-size="14.00">order_status</text>
<polygon fill="none" stroke="black" points="210.75,-390.5 210.75,-413 220.5,-413 220.5,-390.5 210.75,-390.5"/>
<text text-anchor="start" x="213.75" y="-396.7" font-family="Times New Roman,serif" font-size="14.00"> </text>
<polygon fill="none" stroke="black" points="220.5,-390.5 220.5,-413 321.75,-413 321.75,-390.5 220.5,-390.5"/>
<text text-anchor="start" x="234.75" y="-396.7" font-family="Times New Roman,serif" font-size="14.00">is_completed</text>
<polygon fill="none" stroke="black" points="210.75,-368 210.75,-390.5 220.5,-390.5 220.5,-368 210.75,-368"/>
<text text-anchor="start" x="213.75" y="-374.2" font-family="Times New Roman,serif" font-size="14.00"> </text>
<polygon fill="none" stroke="black" points="220.5,-368 220.5,-390.5 321.75,-390.5 321.75,-368 220.5,-368"/>
<text text-anchor="start" x="241.88" y="-374.2" font-family="Times New Roman,serif" font-size="14.00">order_type</text>
<polygon fill="none" stroke="black" points="210.75,-345.5 210.75,-368 220.5,-368 220.5,-345.5 210.75,-345.5"/>
<text text-anchor="start" x="213.75" y="-351.7" font-family="Times New Roman,serif" font-size="14.00"> </text>
<polygon fill="none" stroke="black" points="220.5,-345.5 220.5,-368 321.75,-368 321.75,-345.5 220.5,-345.5"/>
<text text-anchor="start" x="233.62" y="-351.7" font-family="Times New Roman,serif" font-size="14.00">table_number</text>
<polygon fill="none" stroke="black" points="210.75,-323 210.75,-345.5 220.5,-345.5 220.5,-323 210.75,-323"/>
<text text-anchor="start" x="213.75" y="-329.2" font-family="Times New Roman,serif" font-size="14.00"> </text>
<polygon fill="none" stroke="black" points="220.5,-323 220.5,-345.5 321.75,-345.5 321.75,-323 220.5,-323"/>
<text text-anchor="start" x="243.38" y="-329.2" font-family="Times New Roman,serif" font-size="14.00">customers</text>
<polygon fill="none" stroke="black" points="210.75,-300.5 210.75,-323 220.5,-323 220.5,-300.5 210.75,-300.5"/>
<text text-anchor="start" x="213.75" y="-306.7" font-family="Times New Roman,serif" font-size="14.00"> </text>
<polygon fill="none" stroke="black" points="220.5,-300.5 220.5,-323 321.75,-323 321.75,-300.5 220.5,-300.5"/>
<text text-anchor="start" x="259.12" y="-306.7" font-family="Times New Roman,serif" font-size="14.00">total</text>
<polygon fill="none" stroke="black" points="210.75,-278 210.75,-300.5 220.5,-300.5 220.5,-278 210.75,-278"/>
<text text-anchor="start" x="213.75" y="-284.2" font-family="Times New Roman,serif" font-size="14.00"> </text>
<polygon fill="none" stroke="black" points="220.5,-278 220.5,-300.5 321.75,-300.5 321.75,-278 220.5,-278"/>
<text text-anchor="start" x="226.88" y="-284.2" font-family="Times New Roman,serif" font-size="14.00">special_requests</text>
<polygon fill="none" stroke="black" points="210.75,-255.5 210.75,-278 220.5,-278 220.5,-255.5 210.75,-255.5"/>
<text text-anchor="start" x="213.75" y="-261.7" font-family="Times New Roman,serif" font-size="14.00"> </text>
<polygon fill="none" stroke="black" points="220.5,-255.5 220.5,-278 321.75,-278 321.75,-255.5 220.5,-255.5"/>
<text text-anchor="start" x="223.5" y="-261.7" font-family="Times New Roman,serif" font-size="14.00">payment_method</text>
<polygon fill="none" stroke="black" points="210.75,-233 210.75,-255.5 220.5,-255.5 220.5,-233 210.75,-233"/>
<text text-anchor="start" x="213.75" y="-239.2" font-family="Times New Roman,serif" font-size="14.00"> </text>
<polygon fill="none" stroke="black" points="220.5,-233 220.5,-255.5 321.75,-255.5 321.75,-233 220.5,-233"/>
<text text-anchor="start" x="243.38" y="-239.2" font-family="Times New Roman,serif" font-size="14.00">created_at</text>
<polygon fill="none" stroke="black" points="210.75,-210.5 210.75,-233 220.5,-233 220.5,-210.5 210.75,-210.5"/>
<text text-anchor="start" x="213.75" y="-216.7" font-family="Times New Roman,serif" font-size="14.00"> </text>
<polygon fill="none" stroke="black" points="220.5,-210.5 220.5,-233 321.75,-233 321.75,-210.5 220.5,-210.5"/>
<text text-anchor="start" x="241.5" y="-216.7" font-family="Times New Roman,serif" font-size="14.00">updated_at</text>
</g>
<!-- order_items&#45;&gt;orders -->
<g id="edge5" class="edge">
<title>order_items:e&#45;&gt;orders:w</title>
<path fill="none" stroke="black" d="M128.25,-582.25C178.15,-582.25 159.31,-505.34 198.47,-493.32"/>
<polygon fill="black" stroke="black" points="198.83,-496.8 208.25,-491.96 197.86,-489.87 198.83,-496.8"/>
</g>
<!-- users -->
<g id="node8" class="node">
<title>users</title>
<polygon fill="none" stroke="black" points="381.25,-309.5 381.25,-332 479.5,-332 479.5,-309.5 381.25,-309.5"/>
<text text-anchor="start" x="415.38" y="-316.7" font-family="Times New Roman,serif" font-weight="bold" font-size="14.00">users</text>
<polygon fill="none" stroke="black" points="381.25,-287 381.25,-309.5 391,-309.5 391,-287 381.25,-287"/>
<polygon fill="none" stroke="black" points="391,-287 391,-309.5 479.5,-309.5 479.5,-287 391,-287"/>
<text text-anchor="start" x="430" y="-293.2" font-family="Times New Roman,serif" font-size="14.00">id</text>
<polygon fill="none" stroke="black" points="381.25,-264.5 381.25,-287 391,-287 391,-264.5 381.25,-264.5"/>
<text text-anchor="start" x="384.25" y="-270.7" font-family="Times New Roman,serif" font-size="14.00"> </text>
<polygon fill="none" stroke="black" points="391,-264.5 391,-287 479.5,-287 479.5,-264.5 391,-264.5"/>
<text text-anchor="start" x="406" y="-270.7" font-family="Times New Roman,serif" font-size="14.00">first_name</text>
<polygon fill="none" stroke="black" points="381.25,-242 381.25,-264.5 391,-264.5 391,-242 381.25,-242"/>
<text text-anchor="start" x="384.25" y="-248.2" font-family="Times New Roman,serif" font-size="14.00"> </text>
<polygon fill="none" stroke="black" points="391,-242 391,-264.5 479.5,-264.5 479.5,-242 391,-242"/>
<text text-anchor="start" x="407.5" y="-248.2" font-family="Times New Roman,serif" font-size="14.00">last_name</text>
<polygon fill="none" stroke="black" points="381.25,-219.5 381.25,-242 391,-242 391,-219.5 381.25,-219.5"/>
<text text-anchor="start" x="384.25" y="-225.7" font-family="Times New Roman,serif" font-size="14.00"> </text>
<polygon fill="none" stroke="black" points="391,-219.5 391,-242 479.5,-242 479.5,-219.5 391,-219.5"/>
<text text-anchor="start" x="409" y="-225.7" font-family="Times New Roman,serif" font-size="14.00">username</text>
<polygon fill="none" stroke="black" points="381.25,-197 381.25,-219.5 391,-219.5 391,-197 381.25,-197"/>
<text text-anchor="start" x="384.25" y="-203.2" font-family="Times New Roman,serif" font-size="14.00"> </text>
<polygon fill="none" stroke="black" points="391,-197 391,-219.5 479.5,-219.5 479.5,-197 391,-197"/>
<text text-anchor="start" x="409.75" y="-203.2" font-family="Times New Roman,serif" font-size="14.00">password</text>
<polygon fill="none" stroke="black" points="381.25,-174.5 381.25,-197 391,-197 391,-174.5 381.25,-174.5"/>
<text text-anchor="start" x="384.25" y="-180.7" font-family="Times New Roman,serif" font-size="14.00"> </text>
<polygon fill="none" stroke="black" points="391,-174.5 391,-197 479.5,-197 479.5,-174.5 391,-174.5"/>
<text text-anchor="start" x="419.88" y="-180.7" font-family="Times New Roman,serif" font-size="14.00">email</text>
<polygon fill="none" stroke="black" points="381.25,-152 381.25,-174.5 391,-174.5 391,-152 381.25,-152"/>
<text text-anchor="start" x="384.25" y="-158.2" font-family="Times New Roman,serif" font-size="14.00"> </text>
<polygon fill="none" stroke="black" points="391,-152 391,-174.5 479.5,-174.5 479.5,-152 391,-152"/>
<text text-anchor="start" x="424.75" y="-158.2" font-family="Times New Roman,serif" font-size="14.00">role</text>
<polygon fill="none" stroke="black" points="381.25,-129.5 381.25,-152 391,-152 391,-129.5 381.25,-129.5"/>
<text text-anchor="start" x="384.25" y="-135.7" font-family="Times New Roman,serif" font-size="14.00"> </text>
<polygon fill="none" stroke="black" points="391,-129.5 391,-152 479.5,-152 479.5,-129.5 391,-129.5"/>
<text text-anchor="start" x="407.5" y="-135.7" font-family="Times New Roman,serif" font-size="14.00">created_at</text>
<polygon fill="none" stroke="black" points="381.25,-107 381.25,-129.5 391,-129.5 391,-107 381.25,-107"/>
<text text-anchor="start" x="384.25" y="-113.2" font-family="Times New Roman,serif" font-size="14.00"> </text>
<polygon fill="none" stroke="black" points="391,-107 391,-129.5 479.5,-129.5 479.5,-107 391,-107"/>
<text text-anchor="start" x="405.62" y="-113.2" font-family="Times New Roman,serif" font-size="14.00">updated_at</text>
<polygon fill="none" stroke="black" points="381.25,-84.5 381.25,-107 391,-107 391,-84.5 381.25,-84.5"/>
<text text-anchor="start" x="384.25" y="-90.7" font-family="Times New Roman,serif" font-size="14.00"> </text>
<polygon fill="none" stroke="black" points="391,-84.5 391,-107 479.5,-107 479.5,-84.5 391,-84.5"/>
<text text-anchor="start" x="411.25" y="-90.7" font-family="Times New Roman,serif" font-size="14.00">is_active</text>
<polygon fill="none" stroke="black" points="381.25,-62 381.25,-84.5 391,-84.5 391,-62 381.25,-62"/>
<text text-anchor="start" x="384.25" y="-68.2" font-family="Times New Roman,serif" font-size="14.00"> </text>
<polygon fill="none" stroke="black" points="391,-62 391,-84.5 479.5,-84.5 479.5,-62 391,-62"/>
<text text-anchor="start" x="394" y="-68.2" font-family="Times New Roman,serif" font-size="14.00">additional_info</text>
</g>
<!-- orders&#45;&gt;users -->
<g id="edge6" class="edge">
<title>orders:e&#45;&gt;users:w</title>
<path fill="none" stroke="black" d="M322.75,-446.75C389.24,-446.75 319.09,-315.69 369.03,-299.82"/>
<polygon fill="black" stroke="black" points="369.33,-303.31 378.75,-298.46 368.36,-296.38 369.33,-303.31"/>
</g>
<!-- settings -->
<g id="node6" class="node">
<title>settings</title>
<polygon fill="none" stroke="black" points="224.62,-161.5 224.62,-184 307.88,-184 307.88,-161.5 224.62,-161.5"/>
<text text-anchor="start" x="244.5" y="-168.7" font-family="Times New Roman,serif" font-weight="bold" font-size="14.00">settings</text>
<polygon fill="none" stroke="black" points="224.62,-139 224.62,-161.5 234.38,-161.5 234.38,-139 224.62,-139"/>
<polygon fill="none" stroke="black" points="234.38,-139 234.38,-161.5 307.88,-161.5 307.88,-139 234.38,-139"/>
<text text-anchor="start" x="251.25" y="-145.2" font-family="Times New Roman,serif" font-size="14.00">user_id</text>
<polygon fill="none" stroke="black" points="224.62,-116.5 224.62,-139 234.38,-139 234.38,-116.5 224.62,-116.5"/>
<text text-anchor="start" x="227.62" y="-122.7" font-family="Times New Roman,serif" font-size="14.00"> </text>
<polygon fill="none" stroke="black" points="234.38,-116.5 234.38,-139 307.88,-139 307.88,-116.5 234.38,-116.5"/>
<text text-anchor="start" x="254.25" y="-122.7" font-family="Times New Roman,serif" font-size="14.00">theme</text>
<polygon fill="none" stroke="black" points="224.62,-94 224.62,-116.5 234.38,-116.5 234.38,-94 224.62,-94"/>
<text text-anchor="start" x="227.62" y="-100.2" font-family="Times New Roman,serif" font-size="14.00"> </text>
<polygon fill="none" stroke="black" points="234.38,-94 234.38,-116.5 307.88,-116.5 307.88,-94 234.38,-94"/>
<text text-anchor="start" x="244.12" y="-100.2" font-family="Times New Roman,serif" font-size="14.00">resolution</text>
<polygon fill="none" stroke="black" points="224.62,-71.5 224.62,-94 234.38,-94 234.38,-71.5 224.62,-71.5"/>
<text text-anchor="start" x="227.62" y="-77.7" font-family="Times New Roman,serif" font-size="14.00"> </text>
<polygon fill="none" stroke="black" points="234.38,-71.5 234.38,-94 307.88,-94 307.88,-71.5 234.38,-71.5"/>
<text text-anchor="start" x="247.5" y="-77.7" font-family="Times New Roman,serif" font-size="14.00">currency</text>
<polygon fill="none" stroke="black" points="224.62,-49 224.62,-71.5 234.38,-71.5 234.38,-49 224.62,-49"/>
<text text-anchor="start" x="227.62" y="-55.2" font-family="Times New Roman,serif" font-size="14.00"> </text>
<polygon fill="none" stroke="black" points="234.38,-49 234.38,-71.5 307.88,-71.5 307.88,-49 234.38,-49"/>
<text text-anchor="start" x="246" y="-55.2" font-family="Times New Roman,serif" font-size="14.00">timezone</text>
<polygon fill="none" stroke="black" points="224.62,-26.5 224.62,-49 234.38,-49 234.38,-26.5 224.62,-26.5"/>
<text text-anchor="start" x="227.62" y="-32.7" font-family="Times New Roman,serif" font-size="14.00"> </text>
<polygon fill="none" stroke="black" points="234.38,-26.5 234.38,-49 307.88,-49 307.88,-26.5 234.38,-26.5"/>
<text text-anchor="start" x="246.75" y="-32.7" font-family="Times New Roman,serif" font-size="14.00">language</text>
<polygon fill="none" stroke="black" points="224.62,-4 224.62,-26.5 234.38,-26.5 234.38,-4 224.62,-4"/>
<text text-anchor="start" x="227.62" y="-10.2" font-family="Times New Roman,serif" font-size="14.00"> </text>
<polygon fill="none" stroke="black" points="234.38,-4 234.38,-26.5 307.88,-26.5 307.88,-4 234.38,-4"/>
<text text-anchor="start" x="237.38" y="-10.2" font-family="Times New Roman,serif" font-size="14.00">access_level</text>
</g>
<!-- settings&#45;&gt;users -->
<g id="edge7" class="edge">
<title>settings:e&#45;&gt;users:w</title>
<path fill="none" stroke="black" d="M308.88,-150.25C377.62,-150.25 315.47,-281.41 368.88,-296.79"/>
<polygon fill="black" stroke="black" points="368.38,-300.25 378.75,-298.06 369.28,-293.31 368.38,-300.25"/>
</g>
<!-- stock -->
<g id="node7" class="node">
<title>stock</title>
<polygon fill="none" stroke="black" points="15.5,-1095.5 15.5,-1118 143.75,-1118 143.75,-1095.5 15.5,-1095.5"/>
<text text-anchor="start" x="64.62" y="-1102.7" font-family="Times New Roman,serif" font-weight="bold" font-size="14.00">stock</text>
<polygon fill="none" stroke="black" points="15.5,-1073 15.5,-1095.5 25.25,-1095.5 25.25,-1073 15.5,-1073"/>
<polygon fill="none" stroke="black" points="25.25,-1073 25.25,-1095.5 143.75,-1095.5 143.75,-1073 25.25,-1073"/>
<text text-anchor="start" x="79.25" y="-1079.2" font-family="Times New Roman,serif" font-size="14.00">id</text>
<polygon fill="none" stroke="black" points="15.5,-1050.5 15.5,-1073 25.25,-1073 25.25,-1050.5 15.5,-1050.5"/>
<text text-anchor="start" x="18.5" y="-1056.7" font-family="Times New Roman,serif" font-size="14.00"> </text>
<polygon fill="none" stroke="black" points="25.25,-1050.5 25.25,-1073 143.75,-1073 143.75,-1050.5 25.25,-1050.5"/>
<text text-anchor="start" x="48.5" y="-1056.7" font-family="Times New Roman,serif" font-size="14.00">ingredient_id</text>
<polygon fill="none" stroke="black" points="15.5,-1028 15.5,-1050.5 25.25,-1050.5 25.25,-1028 15.5,-1028"/>
<text text-anchor="start" x="18.5" y="-1034.2" font-family="Times New Roman,serif" font-size="14.00"> </text>
<polygon fill="none" stroke="black" points="25.25,-1028 25.25,-1050.5 143.75,-1050.5 143.75,-1028 25.25,-1028"/>
<text text-anchor="start" x="51.5" y="-1034.2" font-family="Times New Roman,serif" font-size="14.00">stock_status</text>
<polygon fill="none" stroke="black" points="15.5,-1005.5 15.5,-1028 25.25,-1028 25.25,-1005.5 15.5,-1005.5"/>
<text text-anchor="start" x="18.5" y="-1011.7" font-family="Times New Roman,serif" font-size="14.00"> </text>
<polygon fill="none" stroke="black" points="25.25,-1005.5 25.25,-1028 143.75,-1028 143.75,-1005.5 25.25,-1005.5"/>
<text text-anchor="start" x="60.12" y="-1011.7" font-family="Times New Roman,serif" font-size="14.00">on_order</text>
<polygon fill="none" stroke="black" points="15.5,-983 15.5,-1005.5 25.25,-1005.5 25.25,-983 15.5,-983"/>
<text text-anchor="start" x="18.5" y="-989.2" font-family="Times New Roman,serif" font-size="14.00"> </text>
<polygon fill="none" stroke="black" points="25.25,-983 25.25,-1005.5 143.75,-1005.5 143.75,-983 25.25,-983"/>
<text text-anchor="start" x="56.75" y="-989.2" font-family="Times New Roman,serif" font-size="14.00">created_at</text>
<polygon fill="none" stroke="black" points="15.5,-960.5 15.5,-983 25.25,-983 25.25,-960.5 15.5,-960.5"/>
<text text-anchor="start" x="18.5" y="-966.7" font-family="Times New Roman,serif" font-size="14.00"> </text>
<polygon fill="none" stroke="black" points="25.25,-960.5 25.25,-983 143.75,-983 143.75,-960.5 25.25,-960.5"/>
<text text-anchor="start" x="50.38" y="-966.7" font-family="Times New Roman,serif" font-size="14.00">last_updated</text>
<polygon fill="none" stroke="black" points="15.5,-938 15.5,-960.5 25.25,-960.5 25.25,-938 15.5,-938"/>
<text text-anchor="start" x="18.5" y="-944.2" font-family="Times New Roman,serif" font-size="14.00"> </text>
<polygon fill="none" stroke="black" points="25.25,-938 25.25,-960.5 143.75,-960.5 143.75,-938 25.25,-938"/>
<text text-anchor="start" x="59" y="-944.2" font-family="Times New Roman,serif" font-size="14.00">unit_type</text>
<polygon fill="none" stroke="black" points="15.5,-915.5 15.5,-938 25.25,-938 25.25,-915.5 15.5,-915.5"/>
<text text-anchor="start" x="18.5" y="-921.7" font-family="Times New Roman,serif" font-size="14.00"> </text>
<polygon fill="none" stroke="black" points="25.25,-915.5 25.25,-938 143.75,-938 143.75,-915.5 25.25,-915.5"/>
<text text-anchor="start" x="62" y="-921.7" font-family="Times New Roman,serif" font-size="14.00">numeral</text>
<polygon fill="none" stroke="black" points="15.5,-893 15.5,-915.5 25.25,-915.5 25.25,-893 15.5,-893"/>
<text text-anchor="start" x="18.5" y="-899.2" font-family="Times New Roman,serif" font-size="14.00"> </text>
<polygon fill="none" stroke="black" points="25.25,-893 25.25,-915.5 143.75,-915.5 143.75,-893 25.25,-893"/>
<text text-anchor="start" x="39.5" y="-899.2" font-family="Times New Roman,serif" font-size="14.00">desired_quantity</text>
<polygon fill="none" stroke="black" points="15.5,-870.5 15.5,-893 25.25,-893 25.25,-870.5 15.5,-870.5"/>
<text text-anchor="start" x="18.5" y="-876.7" font-family="Times New Roman,serif" font-size="14.00"> </text>
<polygon fill="none" stroke="black" points="25.25,-870.5 25.25,-893 143.75,-893 143.75,-870.5 25.25,-870.5"/>
<text text-anchor="start" x="45.12" y="-876.7" font-family="Times New Roman,serif" font-size="14.00">price_per_unit</text>
<polygon fill="none" stroke="black" points="15.5,-848 15.5,-870.5 25.25,-870.5 25.25,-848 15.5,-848"/>
<text text-anchor="start" x="18.5" y="-854.2" font-family="Times New Roman,serif" font-size="14.00"> </text>
<polygon fill="none" stroke="black" points="25.25,-848 25.25,-870.5 143.75,-870.5 143.75,-848 25.25,-848"/>
<text text-anchor="start" x="28.25" y="-854.2" font-family="Times New Roman,serif" font-size="14.00">low_stock_threshold</text>
</g>
<!-- stock&#45;&gt;ingredients -->
<g id="edge3" class="edge">
<title>stock:e&#45;&gt;ingredients:w</title>
<path fill="none" stroke="black" d="M144.75,-1061.75C191.03,-1061.75 178.85,-995.6 215.54,-984.75"/>
<polygon fill="black" stroke="black" points="215.68,-988.26 225.13,-983.45 214.75,-981.32 215.68,-988.26"/>
</g>
</g>
</svg>
